<svg xmlns="http://www.w3.org/2000/svg" width="850" height="400" viewBox="0 0 850 400">
  <defs>
    <style>
      .a {
        fill: #fff;
      }
    </style>
  </defs>
  <title>Denrim_hi_centerZeichenfläche 1 Kopie 2</title>
  <g>
    <path class="a" d="M236,227c-68.74671,0-125,55.41607-125,124H236Z"/>
    <path class="a" d="M93,149c-36.256,0-65,29.767-65,66H93Z"/>
    <path class="a" d="M57,228a35.77,35.77,0,0,0,36,36V228Z"/>
    <path class="a" d="M192.02385,118V64a64.53952,64.53952,0,0,0-18,3V23A66.18651,66.18651,0,0,0,108,86c-.02294,0,.02294.1569,0,.1569V215H236A128.4505,128.4505,0,0,0,192.02385,118ZM142.6693,175.88592a13.4726,13.4726,0,1,1,13.48115-13.4726A13.47686,13.47686,0,0,1,142.6693,175.88592Z"/>
    <path class="a" d="M108,264a35.498,35.498,0,0,0,36-36H108Z"/>
    <g>
      <path class="a" d="M297,273H271v26h26v52H271v26h26a26,26,0,0,0,26-26V299A26,26,0,0,0,297,273Z"/>
      <path class="a" d="M490,271H438v78h26V297h26v52h26V297A26,26,0,0,0,490,271Z"/>
      <path class="a" d="M578,271H552v78h26V297h26A26,26,0,0,0,578,271Z"/>
      <rect class="a" x="381" y="351" width="26" height="26"/>
      <polygon class="a" points="744 323 744 349 770 349 770 323 770 297 744 297 744 323"/>
      <polygon class="a" points="718 271 692 271 692 297 692 323 692 349 718 349 718 323 718 297 744 297 744 271 718 271"/>
      <path class="a" d="M796,271H770v26h26v52h26V297A26,26,0,0,0,796,271Z"/>
      <polygon class="a" points="635 297 635 323 635 349 661 349 661 323 661 297 661 271 635 271 635 297"/>
      <path class="a" d="M635,261h26V245.10533A10.10533,10.10533,0,0,0,650.89467,235H635Z"/>
      <path class="a" d="M355,273v78h26V326h26V300H381V273h26V247H381A26,26,0,0,0,355,273Z"/>
    </g>
  </g>
</svg>
